Disc Title:     Space Jam: A New Legacy
Disc Label:     Space.Jam.A.New.Legacy.2021.MULTI.COMPLETE.BLURAY-BDTOGO
Disc Size:      44,095,923,022 bytes
Protection:     AACS
Extras:         BD-Java
BDInfo:         0.7.5.6

Notes:          

BDINFO HOME:
  Cinema Squid (old)
    http://www.cinemasquid.com/blu-ray/tools/bdinfo
  UniqProject GitHub (new)
   https://github.com/UniqProject/BDInfo

INCLUDES FORUMS REPORT FOR:
  AVS Forum Blu-ray Audio and Video Specifications Thread
    http://www.avsforum.com/avs-vb/showthread.php?t=1155731


********************
PLAYLIST: 00799.MPLS
********************

<--- BEGIN FORUMS PASTE --->
[code]
                                                                                                                Total   Video                                             
Title                                                           Codec   Length  Movie Size      Disc Size       Bitrate Bitrate Main Audio Track                          Secondary Audio Track
-----                                                           ------  ------- --------------  --------------  ------- ------- ------------------                        ---------------------
00799.MPLS                                                      AVC     1:55:31 36,585,953,280  44,095,923,022  42.23   28.02   Dolby Atmos 7.1 3095Kbps (48kHz/16-bit)   DD AC3 5.1 640Kbps
[/code]

[code]

DISC INFO:

Disc Title:     Space Jam: A New Legacy
Disc Label:     Space.Jam.A.New.Legacy.2021.MULTI.COMPLETE.BLURAY-BDTOGO
Disc Size:      44,095,923,022 bytes
Protection:     AACS
Extras:         BD-Java
BDInfo:         0.7.5.6

PLAYLIST REPORT:

Name:                   00799.MPLS
Length:                 1:55:31.257 (h:m:s.ms)
Size:                   36,585,953,280 bytes
Total Bitrate:          42.23 Mbps

VIDEO:

Codec                   Bitrate             Description     
-----                   -------             -----------     
MPEG-4 AVC Video        28023 kbps          1080p / 23.976 fps / 16:9 / High Profile 4.1

AUDIO:

Codec                           Language        Bitrate         Description     
-----                           --------        -------         -----------     
Dolby TrueHD/Atmos Audio        English         3095 kbps       7.1 / 48 kHz /  2647 kbps / 16-bit (AC3 Embedded: 5.1-EX / 48 kHz /   448 kbps / DN -27dB)
Dolby Digital Audio             English         640 kbps        5.1 / 48 kHz /   640 kbps / DN -27dB
Dolby Digital Audio             German          640 kbps        5.1 / 48 kHz /   640 kbps / DN -27dB
Dolby Digital Audio             German          192 kbps        2.0 / 48 kHz /   192 kbps / DN -27dB / Dolby Surround
Dolby Digital Audio             Italian         640 kbps        5.1 / 48 kHz /   640 kbps / DN -27dB
Dolby Digital Audio             Spanish         640 kbps        5.1 / 48 kHz /   640 kbps / DN -27dB
Dolby Digital Audio             Catalan         640 kbps        5.1 / 48 kHz /   640 kbps / DN -27dB
Dolby Digital Audio             Danish          640 kbps        5.1 / 48 kHz /   640 kbps / DN -27dB
Dolby Digital Audio             Basque          640 kbps        5.1 / 48 kHz /   640 kbps / DN -27dB
Dolby Digital Audio             Finnish         640 kbps        5.1 / 48 kHz /   640 kbps / DN -27dB
Dolby Digital Audio             Norwegian       640 kbps        5.1 / 48 kHz /   640 kbps / DN -27dB
Dolby Digital Audio             Swedish         640 kbps        5.1 / 48 kHz /   640 kbps / DN -27dB
Dolby Digital Audio             Japanese        640 kbps        5.1 / 48 kHz /   640 kbps / DN -27dB

SUBTITLES:

Codec                           Language        Bitrate         Description     
-----                           --------        -------         -----------     
Presentation Graphics           Japanese        22.694 kbps                     
Presentation Graphics           English         51.899 kbps                     
Presentation Graphics           German          47.282 kbps                     
Presentation Graphics           Italian         44.721 kbps                     
Presentation Graphics           Spanish         36.708 kbps                     
Presentation Graphics           Danish          31.138 kbps                     
Presentation Graphics           Finnish         34.392 kbps                     
Presentation Graphics           Norwegian       32.796 kbps                     
Presentation Graphics           Swedish         31.426 kbps                     
Presentation Graphics           Japanese        1.251 kbps                      
Presentation Graphics           German          0.545 kbps                      
Presentation Graphics           Italian         1.996 kbps                      
Presentation Graphics           Spanish         1.838 kbps                      
Presentation Graphics           Catalan         2.779 kbps                      
Presentation Graphics           Danish          1.617 kbps                      
Presentation Graphics           Basque          2.109 kbps                      
Presentation Graphics           Finnish         2.539 kbps                      
Presentation Graphics           Norwegian       1.738 kbps                      
Presentation Graphics           Swedish         1.241 kbps                      

FILES:

Name            Time In         Length          Size            Total Bitrate   
----            -------         ------          ----            -------------   
01218.M2TS      0:00:00.000     1:55:31.257     36,585,953,280  42,227          

CHAPTERS:

Number          Time In         Length          Avg Video Rate  Max 1-Sec Rate  Max 1-Sec Time  Max 5-Sec Rate  Max 5-Sec Time  Max 10Sec Rate  Max 10Sec Time  Avg Frame Size  Max Frame Size  Max Frame Time  
------          -------         ------          --------------  --------------  --------------  --------------  --------------  --------------  --------------  --------------  --------------  --------------  
1               0:00:00.000     0:08:57.036     27,955 kbps     34,336 kbps     00:03:51.356    29,905 kbps     00:03:47.268    29,294 kbps     00:03:42.430    145,733 bytes   597,414 bytes   00:03:21.492    
2               0:08:57.036     0:05:31.456     28,151 kbps     33,831 kbps     00:09:12.593    29,791 kbps     00:09:08.548    29,231 kbps     00:09:06.963    146,767 bytes   449,020 bytes   00:10:23.623    
3               0:14:28.492     0:04:52.500     28,571 kbps     33,312 kbps     00:15:24.673    29,533 kbps     00:14:44.216    29,098 kbps     00:14:39.920    148,958 bytes   476,077 bytes   00:15:05.654    
4               0:19:20.993     0:05:50.183     28,468 kbps     38,416 kbps     00:20:58.382    30,663 kbps     00:20:54.336    29,717 kbps     00:20:49.373    148,417 bytes   622,584 bytes   00:20:59.258    
5               0:25:11.176     0:09:31.362     27,723 kbps     35,900 kbps     00:26:42.726    30,023 kbps     00:26:38.680    29,391 kbps     00:26:23.540    144,538 bytes   565,266 bytes   00:26:27.794    
6               0:34:42.538     0:07:28.156     27,952 kbps     35,327 kbps     00:41:50.216    30,454 kbps     00:41:46.212    29,372 kbps     00:41:41.207    145,729 bytes   560,864 bytes   00:35:13.736    
7               0:42:10.694     0:08:23.169     28,037 kbps     35,837 kbps     00:44:13.067    30,049 kbps     00:44:07.770    29,407 kbps     00:45:10.624    146,171 bytes   639,619 bytes   00:45:21.802    
8               0:50:33.864     0:05:26.868     28,431 kbps     33,086 kbps     00:53:08.852    29,513 kbps     00:54:17.170    29,109 kbps     00:52:59.843    148,228 bytes   443,294 bytes   00:55:22.986    
9               0:56:00.732     0:07:56.726     27,690 kbps     32,843 kbps     01:03:05.573    29,589 kbps     01:03:01.319    29,105 kbps     01:02:56.564    144,365 bytes   492,738 bytes   00:56:25.131    
10              1:03:57.458     0:04:42.365     27,288 kbps     33,025 kbps     01:05:47.276    29,526 kbps     01:05:43.189    29,200 kbps     01:05:38.267    142,268 bytes   380,352 bytes   01:04:43.713    
11              1:08:39.824     0:09:01.040     28,370 kbps     33,743 kbps     01:09:52.980    29,478 kbps     01:09:54.565    28,993 kbps     01:16:08.188    147,909 bytes   468,076 bytes   01:16:26.081    
12              1:17:40.864     0:06:26.344     27,696 kbps     34,982 kbps     01:23:48.148    29,984 kbps     01:23:55.655    29,448 kbps     01:23:39.139    144,393 bytes   440,243 bytes   01:21:29.259    
13              1:24:07.208     0:07:51.679     28,244 kbps     32,835 kbps     01:25:53.064    29,603 kbps     01:25:49.060    29,227 kbps     01:25:44.055    147,251 bytes   460,884 bytes   01:25:49.310    
14              1:31:58.888     0:07:34.162     27,997 kbps     32,034 kbps     01:36:00.713    29,484 kbps     01:35:56.959    29,152 kbps     01:35:52.037    145,963 bytes   435,071 bytes   01:32:39.262    
15              1:39:33.050     0:08:42.813     27,957 kbps     35,336 kbps     01:48:14.571    30,087 kbps     01:48:10.567    29,476 kbps     01:48:05.562    145,753 bytes   607,498 bytes   01:45:18.478    
16              1:48:15.864     0:07:15.393     27,989 kbps     34,808 kbps     01:55:28.212    29,946 kbps     01:55:24.208    28,992 kbps     01:53:57.455    145,938 bytes   640,031 bytes   01:52:27.115    

STREAM DIAGNOSTICS:

File            PID             Type            Codec           Language                Seconds                 Bitrate                 Bytes           Packets         
----            ---             ----            -----           --------                --------------          --------------          -------------   -----           
01218.M2TS      4113 (0x1011)   0x1B            AVC                                     6931.091                28,023                  24,279,056,618  132,048,027     
01218.M2TS      4352 (0x1100)   0x83            Atmos           eng (English)           6931.091                3,095                   2,681,567,964   19,605,551      
01218.M2TS      4353 (0x1101)   0x81            AC3             eng (English)           6931.091                640                     554,501,120     3,249,030       
01218.M2TS      4354 (0x1102)   0x81            AC3             deu (German)            6931.091                640                     554,501,120     3,249,030       
01218.M2TS      4355 (0x1103)   0x81            AC3             deu (German)            6931.091                192                     166,350,336     1,083,010       
01218.M2TS      4356 (0x1104)   0x81            AC3             ita (Italian)           6931.091                640                     554,501,120     3,249,030       
01218.M2TS      4357 (0x1105)   0x81            AC3             spa (Spanish)           6931.091                640                     554,501,120     3,249,030       
01218.M2TS      4358 (0x1106)   0x81            AC3             cat (Catalan)           6931.091                640                     554,501,120     3,249,030       
01218.M2TS      4359 (0x1107)   0x81            AC3             dan (Danish)            6931.091                640                     554,501,120     3,249,030       
01218.M2TS      4360 (0x1108)   0x81            AC3             eus (Basque)            6931.091                640                     554,501,120     3,249,030       
01218.M2TS      4361 (0x1109)   0x81            AC3             fin (Finnish)           6931.091                640                     554,501,120     3,249,030       
01218.M2TS      4362 (0x110A)   0x81            AC3             nor (Norwegian)         6931.091                640                     554,501,120     3,249,030       
01218.M2TS      4363 (0x110B)   0x81            AC3             swe (Swedish)           6931.091                640                     554,501,120     3,249,030       
01218.M2TS      4364 (0x110C)   0x81            AC3             jpn (Japanese)          6931.091                640                     554,501,120     3,249,030       
01218.M2TS      4608 (0x1200)   0x90            PGS             jpn (Japanese)          6931.091                23                      19,661,850      117,415         
01218.M2TS      4609 (0x1201)   0x90            PGS             eng (English)           6931.091                52                      44,966,097      261,355         
01218.M2TS      4610 (0x1202)   0x90            PGS             deu (German)            6931.091                47                      40,965,179      235,653         
01218.M2TS      4611 (0x1203)   0x90            PGS             ita (Italian)           6931.091                45                      38,746,186      227,766         
01218.M2TS      4612 (0x1204)   0x90            PGS             spa (Spanish)           6931.091                37                      31,803,939      185,832         
01218.M2TS      4613 (0x1205)   0x90            PGS             dan (Danish)            6931.091                31                      26,978,289      154,922         
01218.M2TS      4614 (0x1206)   0x90            PGS             fin (Finnish)           6931.091                34                      29,797,218      175,527         
01218.M2TS      4615 (0x1207)   0x90            PGS             nor (Norwegian)         6931.091                33                      28,414,892      164,909         
01218.M2TS      4616 (0x1208)   0x90            PGS             swe (Swedish)           6931.091                31                      27,227,987      157,130         
01218.M2TS      4617 (0x1209)   0x90            PGS             jpn (Japanese)          6931.091                1                       1,083,904       6,431           
01218.M2TS      4618 (0x120A)   0x90            PGS             deu (German)            6931.091                1                       472,198         2,750           
01218.M2TS      4619 (0x120B)   0x90            PGS             ita (Italian)           6931.091                2                       1,729,033       10,164          
01218.M2TS      4620 (0x120C)   0x90            PGS             spa (Spanish)           6931.091                2                       1,592,075       9,292           
01218.M2TS      4621 (0x120D)   0x90            PGS             cat (Catalan)           6931.091                3                       2,407,832       14,031          
01218.M2TS      4622 (0x120E)   0x90            PGS             dan (Danish)            6931.091                2                       1,401,323       8,174           
01218.M2TS      4623 (0x120F)   0x90            PGS             eus (Basque)            6931.091                2                       1,827,536       10,636          
01218.M2TS      4624 (0x1210)   0x90            PGS             fin (Finnish)           6931.091                3                       2,199,548       12,895          
01218.M2TS      4625 (0x1211)   0x90            PGS             nor (Norwegian)         6931.091                2                       1,506,145       8,811           
01218.M2TS      4626 (0x1212)   0x90            PGS             swe (Swedish)           6931.091                1                       1,074,834       6,253           

[/code]
<---- END FORUMS PASTE ---->

QUICK SUMMARY:

Disc Title: Space Jam: A New Legacy
Disc Label: Space.Jam.A.New.Legacy.2021.MULTI.COMPLETE.BLURAY-BDTOGO
Disc Size: 44,095,923,022 bytes
Protection: AACS
Playlist: 00799.MPLS
Size: 36,585,953,280 bytes
Length: 1:55:31.257
Total Bitrate: 42.23 Mbps
Video: MPEG-4 AVC Video / 28023 kbps / 1080p / 23.976 fps / 16:9 / High Profile 4.1
Audio: English / Dolby TrueHD/Atmos Audio / 7.1 / 48 kHz /  2647 kbps / 16-bit (AC3 Embedded: 5.1-EX / 48 kHz /   448 kbps / DN -27dB)
Audio: English / Dolby Digital Audio / 5.1 / 48 kHz /   640 kbps / DN -27dB
Audio: German / Dolby Digital Audio / 5.1 / 48 kHz /   640 kbps / DN -27dB
Audio: German / Dolby Digital Audio / 2.0 / 48 kHz /   192 kbps / DN -27dB / Dolby Surround
Audio: Italian / Dolby Digital Audio / 5.1 / 48 kHz /   640 kbps / DN -27dB
Audio: Spanish / Dolby Digital Audio / 5.1 / 48 kHz /   640 kbps / DN -27dB
Audio: Catalan / Dolby Digital Audio / 5.1 / 48 kHz /   640 kbps / DN -27dB
Audio: Danish / Dolby Digital Audio / 5.1 / 48 kHz /   640 kbps / DN -27dB
Audio: Basque / Dolby Digital Audio / 5.1 / 48 kHz /   640 kbps / DN -27dB
Audio: Finnish / Dolby Digital Audio / 5.1 / 48 kHz /   640 kbps / DN -27dB
Audio: Norwegian / Dolby Digital Audio / 5.1 / 48 kHz /   640 kbps / DN -27dB
Audio: Swedish / Dolby Digital Audio / 5.1 / 48 kHz /   640 kbps / DN -27dB
Audio: Japanese / Dolby Digital Audio / 5.1 / 48 kHz /   640 kbps / DN -27dB
Subtitle: Japanese / 22.694 kbps
Subtitle: English / 51.899 kbps
Subtitle: German / 47.282 kbps
Subtitle: Italian / 44.721 kbps
Subtitle: Spanish / 36.708 kbps
Subtitle: Danish / 31.138 kbps
Subtitle: Finnish / 34.392 kbps
Subtitle: Norwegian / 32.796 kbps
Subtitle: Swedish / 31.426 kbps
Subtitle: Japanese / 1.251 kbps
Subtitle: German / 0.545 kbps
Subtitle: Italian / 1.996 kbps
Subtitle: Spanish / 1.838 kbps
Subtitle: Catalan / 2.779 kbps
Subtitle: Danish / 1.617 kbps
Subtitle: Basque / 2.109 kbps
Subtitle: Finnish / 2.539 kbps
Subtitle: Norwegian / 1.738 kbps
Subtitle: Swedish / 1.241 kbps


********************
PLAYLIST: 00800.MPLS
********************

<--- BEGIN FORUMS PASTE --->
[code]
                                                                                                                Total   Video                                             
Title                                                           Codec   Length  Movie Size      Disc Size       Bitrate Bitrate Main Audio Track                          Secondary Audio Track
-----                                                           ------  ------- --------------  --------------  ------- ------- ------------------                        ---------------------
00800.MPLS                                                      AVC     1:55:31 36,585,953,280  44,095,923,022  42.23   28.02   Dolby Atmos 7.1 3095Kbps (48kHz/16-bit)   DD AC3 5.1 640Kbps
[/code]

[code]

DISC INFO:

Disc Title:     Space Jam: A New Legacy
Disc Label:     Space.Jam.A.New.Legacy.2021.MULTI.COMPLETE.BLURAY-BDTOGO
Disc Size:      44,095,923,022 bytes
Protection:     AACS
Extras:         BD-Java
BDInfo:         0.7.5.6

PLAYLIST REPORT:

Name:                   00800.MPLS
Length:                 1:55:31.257 (h:m:s.ms)
Size:                   36,585,953,280 bytes
Total Bitrate:          42.23 Mbps

(*) Indicates included stream hidden by this playlist.

VIDEO:

Codec                   Bitrate             Description     
-----                   -------             -----------     
MPEG-4 AVC Video        28023 kbps          1080p / 23.976 fps / 16:9 / High Profile 4.1

AUDIO:

Codec                           Language        Bitrate         Description     
-----                           --------        -------         -----------     
Dolby TrueHD/Atmos Audio        English         3095 kbps       7.1 / 48 kHz /  2647 kbps / 16-bit (AC3 Embedded: 5.1-EX / 48 kHz /   448 kbps / DN -27dB)
Dolby Digital Audio             English         640 kbps        5.1 / 48 kHz /   640 kbps / DN -27dB
Dolby Digital Audio             German          640 kbps        5.1 / 48 kHz /   640 kbps / DN -27dB
Dolby Digital Audio             German          192 kbps        2.0 / 48 kHz /   192 kbps / DN -27dB / Dolby Surround
Dolby Digital Audio             Italian         640 kbps        5.1 / 48 kHz /   640 kbps / DN -27dB
Dolby Digital Audio             Spanish         640 kbps        5.1 / 48 kHz /   640 kbps / DN -27dB
Dolby Digital Audio             Catalan         640 kbps        5.1 / 48 kHz /   640 kbps / DN -27dB
Dolby Digital Audio             Danish          640 kbps        5.1 / 48 kHz /   640 kbps / DN -27dB
Dolby Digital Audio             Basque          640 kbps        5.1 / 48 kHz /   640 kbps / DN -27dB
Dolby Digital Audio             Finnish         640 kbps        5.1 / 48 kHz /   640 kbps / DN -27dB
Dolby Digital Audio             Norwegian       640 kbps        5.1 / 48 kHz /   640 kbps / DN -27dB
Dolby Digital Audio             Swedish         640 kbps        5.1 / 48 kHz /   640 kbps / DN -27dB
* Dolby Digital Audio           Japanese        640 kbps        5.1 / 48 kHz /   640 kbps / DN -27dB

SUBTITLES:

Codec                           Language        Bitrate         Description     
-----                           --------        -------         -----------     
* Presentation Graphics         Japanese        22.694 kbps                     
Presentation Graphics           English         51.899 kbps                     
Presentation Graphics           German          47.282 kbps                     
Presentation Graphics           Italian         44.721 kbps                     
Presentation Graphics           Spanish         36.708 kbps                     
Presentation Graphics           Danish          31.138 kbps                     
Presentation Graphics           Finnish         34.392 kbps                     
Presentation Graphics           Norwegian       32.796 kbps                     
Presentation Graphics           Swedish         31.426 kbps                     
* Presentation Graphics         Japanese        1.251 kbps                      
Presentation Graphics           German          0.545 kbps                      
Presentation Graphics           Italian         1.996 kbps                      
Presentation Graphics           Spanish         1.838 kbps                      
Presentation Graphics           Catalan         2.779 kbps                      
Presentation Graphics           Danish          1.617 kbps                      
Presentation Graphics           Basque          2.109 kbps                      
Presentation Graphics           Finnish         2.539 kbps                      
Presentation Graphics           Norwegian       1.738 kbps                      
Presentation Graphics           Swedish         1.241 kbps                      

FILES:

Name            Time In         Length          Size            Total Bitrate   
----            -------         ------          ----            -------------   
01218.M2TS      0:00:00.000     1:55:31.257     36,585,953,280  42,227          

CHAPTERS:

Number          Time In         Length          Avg Video Rate  Max 1-Sec Rate  Max 1-Sec Time  Max 5-Sec Rate  Max 5-Sec Time  Max 10Sec Rate  Max 10Sec Time  Avg Frame Size  Max Frame Size  Max Frame Time  
------          -------         ------          --------------  --------------  --------------  --------------  --------------  --------------  --------------  --------------  --------------  --------------  
1               0:00:00.000     0:08:57.036     27,955 kbps     34,336 kbps     00:03:51.356    29,905 kbps     00:03:47.268    29,294 kbps     00:03:42.430    145,733 bytes   597,414 bytes   00:03:21.492    
2               0:08:57.036     0:05:31.456     28,151 kbps     33,831 kbps     00:09:12.593    29,791 kbps     00:09:08.548    29,231 kbps     00:09:06.963    146,767 bytes   449,020 bytes   00:10:23.623    
3               0:14:28.492     0:04:52.500     28,571 kbps     33,312 kbps     00:15:24.673    29,533 kbps     00:14:44.216    29,098 kbps     00:14:39.920    148,958 bytes   476,077 bytes   00:15:05.654    
4               0:19:20.993     0:05:50.183     28,468 kbps     38,416 kbps     00:20:58.382    30,663 kbps     00:20:54.336    29,717 kbps     00:20:49.373    148,417 bytes   622,584 bytes   00:20:59.258    
5               0:25:11.176     0:09:31.362     27,723 kbps     35,900 kbps     00:26:42.726    30,023 kbps     00:26:38.680    29,391 kbps     00:26:23.540    144,538 bytes   565,266 bytes   00:26:27.794    
6               0:34:42.538     0:07:28.156     27,952 kbps     35,327 kbps     00:41:50.216    30,454 kbps     00:41:46.212    29,372 kbps     00:41:41.207    145,729 bytes   560,864 bytes   00:35:13.736    
7               0:42:10.694     0:08:23.169     28,037 kbps     35,837 kbps     00:44:13.067    30,049 kbps     00:44:07.770    29,407 kbps     00:45:10.624    146,171 bytes   639,619 bytes   00:45:21.802    
8               0:50:33.864     0:05:26.868     28,431 kbps     33,086 kbps     00:53:08.852    29,513 kbps     00:54:17.170    29,109 kbps     00:52:59.843    148,228 bytes   443,294 bytes   00:55:22.986    
9               0:56:00.732     0:07:56.726     27,690 kbps     32,843 kbps     01:03:05.573    29,589 kbps     01:03:01.319    29,105 kbps     01:02:56.564    144,365 bytes   492,738 bytes   00:56:25.131    
10              1:03:57.458     0:04:42.365     27,288 kbps     33,025 kbps     01:05:47.276    29,526 kbps     01:05:43.189    29,200 kbps     01:05:38.267    142,268 bytes   380,352 bytes   01:04:43.713    
11              1:08:39.824     0:09:01.040     28,370 kbps     33,743 kbps     01:09:52.980    29,478 kbps     01:09:54.565    28,993 kbps     01:16:08.188    147,909 bytes   468,076 bytes   01:16:26.081    
12              1:17:40.864     0:06:26.344     27,696 kbps     34,982 kbps     01:23:48.148    29,984 kbps     01:23:55.655    29,448 kbps     01:23:39.139    144,393 bytes   440,243 bytes   01:21:29.259    
13              1:24:07.208     0:07:51.679     28,244 kbps     32,835 kbps     01:25:53.064    29,603 kbps     01:25:49.060    29,227 kbps     01:25:44.055    147,251 bytes   460,884 bytes   01:25:49.310    
14              1:31:58.888     0:07:34.162     27,997 kbps     32,034 kbps     01:36:00.713    29,484 kbps     01:35:56.959    29,152 kbps     01:35:52.037    145,963 bytes   435,071 bytes   01:32:39.262    
15              1:39:33.050     0:08:42.813     27,957 kbps     35,336 kbps     01:48:14.571    30,087 kbps     01:48:10.567    29,476 kbps     01:48:05.562    145,753 bytes   607,498 bytes   01:45:18.478    
16              1:48:15.864     0:07:15.393     27,989 kbps     34,808 kbps     01:55:28.212    29,946 kbps     01:55:24.208    28,992 kbps     01:53:57.455    145,938 bytes   640,031 bytes   01:52:27.115    

STREAM DIAGNOSTICS:

File            PID             Type            Codec           Language                Seconds                 Bitrate                 Bytes           Packets         
----            ---             ----            -----           --------                --------------          --------------          -------------   -----           
01218.M2TS      4113 (0x1011)   0x1B            AVC                                     6931.091                28,023                  24,279,056,618  132,048,027     
01218.M2TS      4352 (0x1100)   0x83            Atmos           eng (English)           6931.091                3,095                   2,681,567,964   19,605,551      
01218.M2TS      4353 (0x1101)   0x81            AC3             eng (English)           6931.091                640                     554,501,120     3,249,030       
01218.M2TS      4354 (0x1102)   0x81            AC3             deu (German)            6931.091                640                     554,501,120     3,249,030       
01218.M2TS      4355 (0x1103)   0x81            AC3             deu (German)            6931.091                192                     166,350,336     1,083,010       
01218.M2TS      4356 (0x1104)   0x81            AC3             ita (Italian)           6931.091                640                     554,501,120     3,249,030       
01218.M2TS      4357 (0x1105)   0x81            AC3             spa (Spanish)           6931.091                640                     554,501,120     3,249,030       
01218.M2TS      4358 (0x1106)   0x81            AC3             cat (Catalan)           6931.091                640                     554,501,120     3,249,030       
01218.M2TS      4359 (0x1107)   0x81            AC3             dan (Danish)            6931.091                640                     554,501,120     3,249,030       
01218.M2TS      4360 (0x1108)   0x81            AC3             eus (Basque)            6931.091                640                     554,501,120     3,249,030       
01218.M2TS      4361 (0x1109)   0x81            AC3             fin (Finnish)           6931.091                640                     554,501,120     3,249,030       
01218.M2TS      4362 (0x110A)   0x81            AC3             nor (Norwegian)         6931.091                640                     554,501,120     3,249,030       
01218.M2TS      4363 (0x110B)   0x81            AC3             swe (Swedish)           6931.091                640                     554,501,120     3,249,030       
01218.M2TS      4364 (0x110C)   0x81            AC3             jpn (Japanese)          6931.091                640                     554,501,120     3,249,030       
01218.M2TS      4608 (0x1200)   0x90            PGS             jpn (Japanese)          6931.091                23                      19,661,850      117,415         
01218.M2TS      4609 (0x1201)   0x90            PGS             eng (English)           6931.091                52                      44,966,097      261,355         
01218.M2TS      4610 (0x1202)   0x90            PGS             deu (German)            6931.091                47                      40,965,179      235,653         
01218.M2TS      4611 (0x1203)   0x90            PGS             ita (Italian)           6931.091                45                      38,746,186      227,766         
01218.M2TS      4612 (0x1204)   0x90            PGS             spa (Spanish)           6931.091                37                      31,803,939      185,832         
01218.M2TS      4613 (0x1205)   0x90            PGS             dan (Danish)            6931.091                31                      26,978,289      154,922         
01218.M2TS      4614 (0x1206)   0x90            PGS             fin (Finnish)           6931.091                34                      29,797,218      175,527         
01218.M2TS      4615 (0x1207)   0x90            PGS             nor (Norwegian)         6931.091                33                      28,414,892      164,909         
01218.M2TS      4616 (0x1208)   0x90            PGS             swe (Swedish)           6931.091                31                      27,227,987      157,130         
01218.M2TS      4617 (0x1209)   0x90            PGS             jpn (Japanese)          6931.091                1                       1,083,904       6,431           
01218.M2TS      4618 (0x120A)   0x90            PGS             deu (German)            6931.091                1                       472,198         2,750           
01218.M2TS      4619 (0x120B)   0x90            PGS             ita (Italian)           6931.091                2                       1,729,033       10,164          
01218.M2TS      4620 (0x120C)   0x90            PGS             spa (Spanish)           6931.091                2                       1,592,075       9,292           
01218.M2TS      4621 (0x120D)   0x90            PGS             cat (Catalan)           6931.091                3                       2,407,832       14,031          
01218.M2TS      4622 (0x120E)   0x90            PGS             dan (Danish)            6931.091                2                       1,401,323       8,174           
01218.M2TS      4623 (0x120F)   0x90            PGS             eus (Basque)            6931.091                2                       1,827,536       10,636          
01218.M2TS      4624 (0x1210)   0x90            PGS             fin (Finnish)           6931.091                3                       2,199,548       12,895          
01218.M2TS      4625 (0x1211)   0x90            PGS             nor (Norwegian)         6931.091                2                       1,506,145       8,811           
01218.M2TS      4626 (0x1212)   0x90            PGS             swe (Swedish)           6931.091                1                       1,074,834       6,253           

[/code]
<---- END FORUMS PASTE ---->

QUICK SUMMARY:

Disc Title: Space Jam: A New Legacy
Disc Label: Space.Jam.A.New.Legacy.2021.MULTI.COMPLETE.BLURAY-BDTOGO
Disc Size: 44,095,923,022 bytes
Protection: AACS
Playlist: 00800.MPLS
Size: 36,585,953,280 bytes
Length: 1:55:31.257
Total Bitrate: 42.23 Mbps
Video: MPEG-4 AVC Video / 28023 kbps / 1080p / 23.976 fps / 16:9 / High Profile 4.1
Audio: English / Dolby TrueHD/Atmos Audio / 7.1 / 48 kHz /  2647 kbps / 16-bit (AC3 Embedded: 5.1-EX / 48 kHz /   448 kbps / DN -27dB)
Audio: English / Dolby Digital Audio / 5.1 / 48 kHz /   640 kbps / DN -27dB
Audio: German / Dolby Digital Audio / 5.1 / 48 kHz /   640 kbps / DN -27dB
Audio: German / Dolby Digital Audio / 2.0 / 48 kHz /   192 kbps / DN -27dB / Dolby Surround
Audio: Italian / Dolby Digital Audio / 5.1 / 48 kHz /   640 kbps / DN -27dB
Audio: Spanish / Dolby Digital Audio / 5.1 / 48 kHz /   640 kbps / DN -27dB
Audio: Catalan / Dolby Digital Audio / 5.1 / 48 kHz /   640 kbps / DN -27dB
Audio: Danish / Dolby Digital Audio / 5.1 / 48 kHz /   640 kbps / DN -27dB
Audio: Basque / Dolby Digital Audio / 5.1 / 48 kHz /   640 kbps / DN -27dB
Audio: Finnish / Dolby Digital Audio / 5.1 / 48 kHz /   640 kbps / DN -27dB
Audio: Norwegian / Dolby Digital Audio / 5.1 / 48 kHz /   640 kbps / DN -27dB
Audio: Swedish / Dolby Digital Audio / 5.1 / 48 kHz /   640 kbps / DN -27dB
* Audio: Japanese / Dolby Digital Audio / 5.1 / 48 kHz /   640 kbps / DN -27dB
* Subtitle: Japanese / 22.694 kbps
Subtitle: English / 51.899 kbps
Subtitle: German / 47.282 kbps
Subtitle: Italian / 44.721 kbps
Subtitle: Spanish / 36.708 kbps
Subtitle: Danish / 31.138 kbps
Subtitle: Finnish / 34.392 kbps
Subtitle: Norwegian / 32.796 kbps
Subtitle: Swedish / 31.426 kbps
* Subtitle: Japanese / 1.251 kbps
Subtitle: German / 0.545 kbps
Subtitle: Italian / 1.996 kbps
Subtitle: Spanish / 1.838 kbps
Subtitle: Catalan / 2.779 kbps
Subtitle: Danish / 1.617 kbps
Subtitle: Basque / 2.109 kbps
Subtitle: Finnish / 2.539 kbps
Subtitle: Norwegian / 1.738 kbps
Subtitle: Swedish / 1.241 kbps


********************
PLAYLIST: 00801.MPLS
********************

<--- BEGIN FORUMS PASTE --->
[code]
                                                                                                                Total   Video                                             
Title                                                           Codec   Length  Movie Size      Disc Size       Bitrate Bitrate Main Audio Track                          Secondary Audio Track
-----                                                           ------  ------- --------------  --------------  ------- ------- ------------------                        ---------------------
00801.MPLS                                                      AVC     1:55:31 36,585,953,280  44,095,923,022  42.23   28.02   Dolby Atmos 7.1 3095Kbps (48kHz/16-bit)   DD AC3 5.1 640Kbps
[/code]

[code]

DISC INFO:

Disc Title:     Space Jam: A New Legacy
Disc Label:     Space.Jam.A.New.Legacy.2021.MULTI.COMPLETE.BLURAY-BDTOGO
Disc Size:      44,095,923,022 bytes
Protection:     AACS
Extras:         BD-Java
BDInfo:         0.7.5.6

PLAYLIST REPORT:

Name:                   00801.MPLS
Length:                 1:55:31.257 (h:m:s.ms)
Size:                   36,585,953,280 bytes
Total Bitrate:          42.23 Mbps

(*) Indicates included stream hidden by this playlist.

VIDEO:

Codec                   Bitrate             Description     
-----                   -------             -----------     
MPEG-4 AVC Video        28023 kbps          1080p / 23.976 fps / 16:9 / High Profile 4.1

AUDIO:

Codec                           Language        Bitrate         Description     
-----                           --------        -------         -----------     
Dolby TrueHD/Atmos Audio        English         3095 kbps       7.1 / 48 kHz /  2647 kbps / 16-bit (AC3 Embedded: 5.1-EX / 48 kHz /   448 kbps / DN -27dB)
* Dolby Digital Audio           English         640 kbps        5.1 / 48 kHz /   640 kbps / DN -27dB
* Dolby Digital Audio           German          640 kbps        5.1 / 48 kHz /   640 kbps / DN -27dB
* Dolby Digital Audio           German          192 kbps        2.0 / 48 kHz /   192 kbps / DN -27dB / Dolby Surround
* Dolby Digital Audio           Italian         640 kbps        5.1 / 48 kHz /   640 kbps / DN -27dB
* Dolby Digital Audio           Spanish         640 kbps        5.1 / 48 kHz /   640 kbps / DN -27dB
* Dolby Digital Audio           Catalan         640 kbps        5.1 / 48 kHz /   640 kbps / DN -27dB
* Dolby Digital Audio           Danish          640 kbps        5.1 / 48 kHz /   640 kbps / DN -27dB
* Dolby Digital Audio           Basque          640 kbps        5.1 / 48 kHz /   640 kbps / DN -27dB
* Dolby Digital Audio           Finnish         640 kbps        5.1 / 48 kHz /   640 kbps / DN -27dB
* Dolby Digital Audio           Norwegian       640 kbps        5.1 / 48 kHz /   640 kbps / DN -27dB
* Dolby Digital Audio           Swedish         640 kbps        5.1 / 48 kHz /   640 kbps / DN -27dB
Dolby Digital Audio             Japanese        640 kbps        5.1 / 48 kHz /   640 kbps / DN -27dB

SUBTITLES:

Codec                           Language        Bitrate         Description     
-----                           --------        -------         -----------     
Presentation Graphics           Japanese        22.694 kbps                     
Presentation Graphics           English         51.899 kbps                     
* Presentation Graphics         German          47.282 kbps                     
* Presentation Graphics         Italian         44.721 kbps                     
* Presentation Graphics         Spanish         36.708 kbps                     
* Presentation Graphics         Danish          31.138 kbps                     
* Presentation Graphics         Finnish         34.392 kbps                     
* Presentation Graphics         Norwegian       32.796 kbps                     
* Presentation Graphics         Swedish         31.426 kbps                     
Presentation Graphics           Japanese        1.251 kbps                      
* Presentation Graphics         German          0.545 kbps                      
* Presentation Graphics         Italian         1.996 kbps                      
* Presentation Graphics         Spanish         1.838 kbps                      
* Presentation Graphics         Catalan         2.779 kbps                      
* Presentation Graphics         Danish          1.617 kbps                      
* Presentation Graphics         Basque          2.109 kbps                      
* Presentation Graphics         Finnish         2.539 kbps                      
* Presentation Graphics         Norwegian       1.738 kbps                      
* Presentation Graphics         Swedish         1.241 kbps                      

FILES:

Name            Time In         Length          Size            Total Bitrate   
----            -------         ------          ----            -------------   
01218.M2TS      0:00:00.000     1:55:31.257     36,585,953,280  42,227          

CHAPTERS:

Number          Time In         Length          Avg Video Rate  Max 1-Sec Rate  Max 1-Sec Time  Max 5-Sec Rate  Max 5-Sec Time  Max 10Sec Rate  Max 10Sec Time  Avg Frame Size  Max Frame Size  Max Frame Time  
------          -------         ------          --------------  --------------  --------------  --------------  --------------  --------------  --------------  --------------  --------------  --------------  
1               0:00:00.000     0:08:57.036     27,955 kbps     34,336 kbps     00:03:51.356    29,905 kbps     00:03:47.268    29,294 kbps     00:03:42.430    145,733 bytes   597,414 bytes   00:03:21.492    
2               0:08:57.036     0:05:31.456     28,151 kbps     33,831 kbps     00:09:12.593    29,791 kbps     00:09:08.548    29,231 kbps     00:09:06.963    146,767 bytes   449,020 bytes   00:10:23.623    
3               0:14:28.492     0:04:52.500     28,571 kbps     33,312 kbps     00:15:24.673    29,533 kbps     00:14:44.216    29,098 kbps     00:14:39.920    148,958 bytes   476,077 bytes   00:15:05.654    
4               0:19:20.993     0:05:50.183     28,468 kbps     38,416 kbps     00:20:58.382    30,663 kbps     00:20:54.336    29,717 kbps     00:20:49.373    148,417 bytes   622,584 bytes   00:20:59.258    
5               0:25:11.176     0:09:31.362     27,723 kbps     35,900 kbps     00:26:42.726    30,023 kbps     00:26:38.680    29,391 kbps     00:26:23.540    144,538 bytes   565,266 bytes   00:26:27.794    
6               0:34:42.538     0:07:28.156     27,952 kbps     35,327 kbps     00:41:50.216    30,454 kbps     00:41:46.212    29,372 kbps     00:41:41.207    145,729 bytes   560,864 bytes   00:35:13.736    
7               0:42:10.694     0:08:23.169     28,037 kbps     35,837 kbps     00:44:13.067    30,049 kbps     00:44:07.770    29,407 kbps     00:45:10.624    146,171 bytes   639,619 bytes   00:45:21.802    
8               0:50:33.864     0:05:26.868     28,431 kbps     33,086 kbps     00:53:08.852    29,513 kbps     00:54:17.170    29,109 kbps     00:52:59.843    148,228 bytes   443,294 bytes   00:55:22.986    
9               0:56:00.732     0:07:56.726     27,690 kbps     32,843 kbps     01:03:05.573    29,589 kbps     01:03:01.319    29,105 kbps     01:02:56.564    144,365 bytes   492,738 bytes   00:56:25.131    
10              1:03:57.458     0:04:42.365     27,288 kbps     33,025 kbps     01:05:47.276    29,526 kbps     01:05:43.189    29,200 kbps     01:05:38.267    142,268 bytes   380,352 bytes   01:04:43.713    
11              1:08:39.824     0:09:01.040     28,370 kbps     33,743 kbps     01:09:52.980    29,478 kbps     01:09:54.565    28,993 kbps     01:16:08.188    147,909 bytes   468,076 bytes   01:16:26.081    
12              1:17:40.864     0:06:26.344     27,696 kbps     34,982 kbps     01:23:48.148    29,984 kbps     01:23:55.655    29,448 kbps     01:23:39.139    144,393 bytes   440,243 bytes   01:21:29.259    
13              1:24:07.208     0:07:51.679     28,244 kbps     32,835 kbps     01:25:53.064    29,603 kbps     01:25:49.060    29,227 kbps     01:25:44.055    147,251 bytes   460,884 bytes   01:25:49.310    
14              1:31:58.888     0:07:34.162     27,997 kbps     32,034 kbps     01:36:00.713    29,484 kbps     01:35:56.959    29,152 kbps     01:35:52.037    145,963 bytes   435,071 bytes   01:32:39.262    
15              1:39:33.050     0:08:42.813     27,957 kbps     35,336 kbps     01:48:14.571    30,087 kbps     01:48:10.567    29,476 kbps     01:48:05.562    145,753 bytes   607,498 bytes   01:45:18.478    
16              1:48:15.864     0:07:15.393     27,989 kbps     34,808 kbps     01:55:28.212    29,946 kbps     01:55:24.208    28,992 kbps     01:53:57.455    145,938 bytes   640,031 bytes   01:52:27.115    

STREAM DIAGNOSTICS:

File            PID             Type            Codec           Language                Seconds                 Bitrate                 Bytes           Packets         
----            ---             ----            -----           --------                --------------          --------------          -------------   -----           
01218.M2TS      4113 (0x1011)   0x1B            AVC                                     6931.091                28,023                  24,279,056,618  132,048,027     
01218.M2TS      4352 (0x1100)   0x83            Atmos           eng (English)           6931.091                3,095                   2,681,567,964   19,605,551      
01218.M2TS      4353 (0x1101)   0x81            AC3             eng (English)           6931.091                640                     554,501,120     3,249,030       
01218.M2TS      4354 (0x1102)   0x81            AC3             deu (German)            6931.091                640                     554,501,120     3,249,030       
01218.M2TS      4355 (0x1103)   0x81            AC3             deu (German)            6931.091                192                     166,350,336     1,083,010       
01218.M2TS      4356 (0x1104)   0x81            AC3             ita (Italian)           6931.091                640                     554,501,120     3,249,030       
01218.M2TS      4357 (0x1105)   0x81            AC3             spa (Spanish)           6931.091                640                     554,501,120     3,249,030       
01218.M2TS      4358 (0x1106)   0x81            AC3             cat (Catalan)           6931.091                640                     554,501,120     3,249,030       
01218.M2TS      4359 (0x1107)   0x81            AC3             dan (Danish)            6931.091                640                     554,501,120     3,249,030       
01218.M2TS      4360 (0x1108)   0x81            AC3             eus (Basque)            6931.091                640                     554,501,120     3,249,030       
01218.M2TS      4361 (0x1109)   0x81            AC3             fin (Finnish)           6931.091                640                     554,501,120     3,249,030       
01218.M2TS      4362 (0x110A)   0x81            AC3             nor (Norwegian)         6931.091                640                     554,501,120     3,249,030       
01218.M2TS      4363 (0x110B)   0x81            AC3             swe (Swedish)           6931.091                640                     554,501,120     3,249,030       
01218.M2TS      4364 (0x110C)   0x81            AC3             jpn (Japanese)          6931.091                640                     554,501,120     3,249,030       
01218.M2TS      4608 (0x1200)   0x90            PGS             jpn (Japanese)          6931.091                23                      19,661,850      117,415         
01218.M2TS      4609 (0x1201)   0x90            PGS             eng (English)           6931.091                52                      44,966,097      261,355         
01218.M2TS      4610 (0x1202)   0x90            PGS             deu (German)            6931.091                47                      40,965,179      235,653         
01218.M2TS      4611 (0x1203)   0x90            PGS             ita (Italian)           6931.091                45                      38,746,186      227,766         
01218.M2TS      4612 (0x1204)   0x90            PGS             spa (Spanish)           6931.091                37                      31,803,939      185,832         
01218.M2TS      4613 (0x1205)   0x90            PGS             dan (Danish)            6931.091                31                      26,978,289      154,922         
01218.M2TS      4614 (0x1206)   0x90            PGS             fin (Finnish)           6931.091                34                      29,797,218      175,527         
01218.M2TS      4615 (0x1207)   0x90            PGS             nor (Norwegian)         6931.091                33                      28,414,892      164,909         
01218.M2TS      4616 (0x1208)   0x90            PGS             swe (Swedish)           6931.091                31                      27,227,987      157,130         
01218.M2TS      4617 (0x1209)   0x90            PGS             jpn (Japanese)          6931.091                1                       1,083,904       6,431           
01218.M2TS      4618 (0x120A)   0x90            PGS             deu (German)            6931.091                1                       472,198         2,750           
01218.M2TS      4619 (0x120B)   0x90            PGS             ita (Italian)           6931.091                2                       1,729,033       10,164          
01218.M2TS      4620 (0x120C)   0x90            PGS             spa (Spanish)           6931.091                2                       1,592,075       9,292           
01218.M2TS      4621 (0x120D)   0x90            PGS             cat (Catalan)           6931.091                3                       2,407,832       14,031          
01218.M2TS      4622 (0x120E)   0x90            PGS             dan (Danish)            6931.091                2                       1,401,323       8,174           
01218.M2TS      4623 (0x120F)   0x90            PGS             eus (Basque)            6931.091                2                       1,827,536       10,636          
01218.M2TS      4624 (0x1210)   0x90            PGS             fin (Finnish)           6931.091                3                       2,199,548       12,895          
01218.M2TS      4625 (0x1211)   0x90            PGS             nor (Norwegian)         6931.091                2                       1,506,145       8,811           
01218.M2TS      4626 (0x1212)   0x90            PGS             swe (Swedish)           6931.091                1                       1,074,834       6,253           

[/code]
<---- END FORUMS PASTE ---->

QUICK SUMMARY:

Disc Title: Space Jam: A New Legacy
Disc Label: Space.Jam.A.New.Legacy.2021.MULTI.COMPLETE.BLURAY-BDTOGO
Disc Size: 44,095,923,022 bytes
Protection: AACS
Playlist: 00801.MPLS
Size: 36,585,953,280 bytes
Length: 1:55:31.257
Total Bitrate: 42.23 Mbps
Video: MPEG-4 AVC Video / 28023 kbps / 1080p / 23.976 fps / 16:9 / High Profile 4.1
Audio: English / Dolby TrueHD/Atmos Audio / 7.1 / 48 kHz /  2647 kbps / 16-bit (AC3 Embedded: 5.1-EX / 48 kHz /   448 kbps / DN -27dB)
* Audio: English / Dolby Digital Audio / 5.1 / 48 kHz /   640 kbps / DN -27dB
* Audio: German / Dolby Digital Audio / 5.1 / 48 kHz /   640 kbps / DN -27dB
* Audio: German / Dolby Digital Audio / 2.0 / 48 kHz /   192 kbps / DN -27dB / Dolby Surround
* Audio: Italian / Dolby Digital Audio / 5.1 / 48 kHz /   640 kbps / DN -27dB
* Audio: Spanish / Dolby Digital Audio / 5.1 / 48 kHz /   640 kbps / DN -27dB
* Audio: Catalan / Dolby Digital Audio / 5.1 / 48 kHz /   640 kbps / DN -27dB
* Audio: Danish / Dolby Digital Audio / 5.1 / 48 kHz /   640 kbps / DN -27dB
* Audio: Basque / Dolby Digital Audio / 5.1 / 48 kHz /   640 kbps / DN -27dB
* Audio: Finnish / Dolby Digital Audio / 5.1 / 48 kHz /   640 kbps / DN -27dB
* Audio: Norwegian / Dolby Digital Audio / 5.1 / 48 kHz /   640 kbps / DN -27dB
* Audio: Swedish / Dolby Digital Audio / 5.1 / 48 kHz /   640 kbps / DN -27dB
Audio: Japanese / Dolby Digital Audio / 5.1 / 48 kHz /   640 kbps / DN -27dB
Subtitle: Japanese / 22.694 kbps
Subtitle: English / 51.899 kbps
* Subtitle: German / 47.282 kbps
* Subtitle: Italian / 44.721 kbps
* Subtitle: Spanish / 36.708 kbps
* Subtitle: Danish / 31.138 kbps
* Subtitle: Finnish / 34.392 kbps
* Subtitle: Norwegian / 32.796 kbps
* Subtitle: Swedish / 31.426 kbps
Subtitle: Japanese / 1.251 kbps
* Subtitle: German / 0.545 kbps
* Subtitle: Italian / 1.996 kbps
* Subtitle: Spanish / 1.838 kbps
* Subtitle: Catalan / 2.779 kbps
* Subtitle: Danish / 1.617 kbps
* Subtitle: Basque / 2.109 kbps
* Subtitle: Finnish / 2.539 kbps
* Subtitle: Norwegian / 1.738 kbps
* Subtitle: Swedish / 1.241 kbps

